# Blender v2.82 (sub 7) OBJ File: 'DefaultFactory.blend'
# www.blender.org
mtllib DefaultFactory.mtl
o Plane
v 8.000000 0.000000 -4.000000
v 8.000000 0.000000 0.000000
v 0.000000 0.000000 -4.000000
v 8.000000 0.000000 -4.000000
v 0.000000 0.000000 -4.000000
v 8.000000 0.000000 0.000000
v 0.000000 0.000000 0.000000
v 8.000000 0.000000 -4.000000
v 0.000000 0.000000 -4.000000
v 8.000000 0.000000 0.000000
v 0.000000 0.000000 0.000000
vt 0.000000 0.000000
vt 0.000000 0.000000
vt 0.000000 0.000000
vt 0.000000 0.000000
vt 0.000000 0.000000
vt 0.000000 0.000000
vt 0.000000 0.000000
vt 0.000000 0.000000
vt 0.000000 0.000000
vt 0.000000 0.000000
vt 0.000000 0.000000
vn 0.0000 0.0000 1.0000
vn 0.0000 1.0000 0.0000
usemtl None
s off
f 1/1/1 3/2/1 4/3/1
f 6/4/1 4/3/1 2/5/1
f 5/6/1 11/7/1 9/8/1
f 9/8/2 10/9/2 8/10/2
f 1/1/1 5/6/1 3/2/1
f 6/4/1 1/1/1 4/3/1
f 5/6/1 7/11/1 11/7/1
f 9/8/2 11/7/2 10/9/2
l 4 8
l 6 10
o Plane.001
v 0.000000 0.000000 -3.999999
v 8.000000 0.000000 -4.000000
v 0.000000 4.000000 -3.999999
v 8.000000 4.000000 -4.000000
vt 0.000000 0.000000
vt 0.000000 0.000000
vt 0.000000 0.000000
vt 0.000000 0.000000
vn 0.0000 0.0000 1.0000
usemtl None
s off
f 13/12/3 14/13/3 12/14/3
f 13/12/3 15/15/3 14/13/3
o Plane.002
v 8.000000 0.000000 -3.999999
v 8.000000 4.000000 -3.999999
v 8.000000 0.000000 0.000000
v 8.000000 4.000000 0.000000
vt 0.000000 0.000000
vt 0.000000 0.000000
vt 0.000000 0.000000
vt 0.000000 0.000000
vn -1.0000 0.0000 0.0000
usemtl None
s off
f 16/16/4 19/17/4 17/18/4
f 16/16/4 18/19/4 19/17/4
o Plane.003
v 0.000000 0.000000 0.000000
v 0.000000 4.000000 0.000000
v 0.000000 0.000000 -4.000000
v 0.000000 4.000000 -4.000000
vt 0.000000 0.000000
vt 0.000000 0.000000
vt 0.000000 0.000000
vt 0.000000 0.000000
vn 1.0000 0.0000 0.0000
usemtl None
s off
f 20/20/5 23/21/5 21/22/5
f 20/20/5 22/23/5 23/21/5
o Plane.004
v 8.000000 0.000000 0.000000
v 0.000000 0.000000 0.000000
v 8.000000 4.000000 0.000000
v 0.000000 4.000000 0.000000
vt 0.000000 0.000000
vt 0.000000 0.000000
vt 0.000000 0.000000
vt 0.000000 0.000000
vn 0.0000 0.0000 -1.0000
usemtl None
s off
f 25/24/6 26/25/6 24/26/6
f 25/24/6 27/27/6 26/25/6
